<svg xmlns="http://www.w3.org/2000/svg" xmlns:xlink="http://www.w3.org/1999/xlink" width="57.205" height="43.69" viewBox="0 0 57.205 43.69">
  <defs>
    <linearGradient id="linear-gradient" x1="0.5" x2="0.6" y2="0.716" gradientUnits="objectBoundingBox">
      <stop offset="0" stop-color="#ffd201"/>
      <stop offset="1" stop-color="#24285b"/>
    </linearGradient>
  </defs>
  <g id="Group_27" data-name="Group 27" transform="translate(-677.138 -236.31)">
    <rect id="Rectangle_31" data-name="Rectangle 31" width="15" height="4" rx="2" transform="translate(719.342 254.155)" fill="url(#linear-gradient)"/>
    <rect id="Rectangle_34" data-name="Rectangle 34" width="15" height="4" rx="2" transform="translate(677.138 253.155)" fill="url(#linear-gradient)"/>
    <rect id="Rectangle_30" data-name="Rectangle 30" width="15" height="4" rx="2" transform="translate(716.95 245.636) rotate(-30)" fill="url(#linear-gradient)"/>
    <rect id="Rectangle_33" data-name="Rectangle 33" width="15" height="4" rx="2" transform="translate(692.53 248.1) rotate(-150)" fill="url(#linear-gradient)"/>
    <rect id="Rectangle_32" data-name="Rectangle 32" width="15" height="4" rx="2" transform="translate(718.95 260.591) rotate(30)" fill="url(#linear-gradient)"/>
    <rect id="Rectangle_35" data-name="Rectangle 35" width="15" height="4" rx="2" transform="translate(694.53 263.055) rotate(150)" fill="url(#linear-gradient)"/>
    <g id="Group_3" data-name="Group 3" transform="translate(687.834 236.31)">
      <path id="Path_1" data-name="Path 1" d="M30.463,11.012l5.278,8.9L29.105,31.371h-8.9L17.946,27.45h8.9l4.373-7.54-4.223-7.54L22.168,4.226l-8.747.151L9.35,11.314,8.6,12.671l-.151.3L4.373,19.91l6.635,11.461H6.635L0,19.91l5.278-9.35L11.16.456H24.43l5.58,9.652.3.452Z" transform="translate(0 -0.456)" fill="#fff"/>
      <rect id="Rectangle_1" data-name="Rectangle 1" width="5" height="10" transform="translate(7.166 33.69)" fill="#fff"/>
      <rect id="Rectangle_2" data-name="Rectangle 2" width="4" height="10" transform="translate(24.166 33.69)" fill="#fff"/>
    </g>
  </g>
</svg>
