<svg width="274" height="205" viewBox="0 0 274 205" fill="none" xmlns="http://www.w3.org/2000/svg">
<path d="M274 179.415H0V179.552H274V179.415Z" fill="#EBEBEB"/>
<path d="M75.4376 183.147H57.2878V183.284H75.4376V183.147Z" fill="#EBEBEB"/>
<path d="M116.116 188.167H93.7847V188.304H116.116V188.167Z" fill="#EBEBEB"/>
<path d="M56.7399 186.452H28.748V186.589H56.7399V186.452Z" fill="#EBEBEB"/>
<path d="M246.545 184.068H195.505V184.205H246.545V184.068Z" fill="#EBEBEB"/>
<path d="M190.627 184.068H187.158V184.205H190.627V184.068Z" fill="#EBEBEB"/>
<path d="M175.053 186.38H151.911V186.517H175.053V186.38Z" fill="#EBEBEB"/>
<path d="M129.876 154.974H24.0628C23.2339 154.973 22.4394 154.643 21.8538 154.056C21.2681 153.469 20.9392 152.674 20.9392 151.845V3.10168C20.9464 2.2775 21.2785 1.48945 21.8634 0.908704C22.4482 0.327955 23.2386 0.00141186 24.0628 0H129.876C130.706 0 131.502 0.32967 132.089 0.916487C132.676 1.5033 133.005 2.2992 133.005 3.12908V151.845C133.005 152.675 132.676 153.471 132.089 154.058C131.502 154.645 130.706 154.974 129.876 154.974ZM24.0628 0.1096C23.2702 0.111052 22.5106 0.426928 21.9506 0.987894C21.3907 1.54886 21.0762 2.30908 21.0762 3.10168V151.845C21.0762 152.638 21.3907 153.398 21.9506 153.959C22.5106 154.52 23.2702 154.836 24.0628 154.837H129.876C130.669 154.836 131.429 154.52 131.99 153.959C132.551 153.399 132.867 152.638 132.868 151.845V3.10168C132.867 2.30858 132.551 1.54837 131.99 0.98756C131.429 0.42675 130.669 0.111049 129.876 0.1096H24.0628Z" fill="#EBEBEB"/>
<path d="M248.414 154.974H142.595C141.765 154.973 140.97 154.643 140.384 154.056C139.797 153.47 139.467 152.675 139.466 151.845V3.10168C139.474 2.277 139.808 1.48896 140.394 0.908361C140.979 0.327764 141.77 0.00139646 142.595 0H248.414C249.237 0.00285206 250.026 0.330033 250.61 0.910627C251.193 1.49122 251.525 2.27845 251.532 3.10168V151.845C251.532 152.673 251.204 153.468 250.619 154.054C250.035 154.641 249.242 154.971 248.414 154.974ZM142.595 0.1096C141.802 0.111049 141.042 0.42675 140.481 0.98756C139.92 1.54837 139.604 2.30858 139.603 3.10168V151.845C139.604 152.638 139.92 153.399 140.481 153.959C141.042 154.52 141.802 154.836 142.595 154.837H248.414C249.207 154.836 249.967 154.52 250.528 153.959C251.089 153.399 251.404 152.638 251.406 151.845V3.10168C251.404 2.30858 251.089 1.54837 250.528 0.98756C249.967 0.42675 249.207 0.111049 248.414 0.1096H142.595Z" fill="#EBEBEB"/>
<path d="M234.385 39.9163H199.171V95.9384H234.385V39.9163Z" fill="#E0E0E0"/>
<path d="M236.511 39.9163H200.097V95.9384H236.511V39.9163Z" fill="#F5F5F5"/>
<path d="M203.149 44.0044V91.8557H233.459V44.0044H203.149Z" fill="white"/>
<path d="M203.703 121.316H193.554V177.782H203.703V121.316Z" fill="#F0F0F0"/>
<path d="M240.178 177.782H195.505V179.415H240.178V177.782Z" fill="#F0F0F0"/>
<path d="M203.697 177.782H242.123V121.316H203.697V177.782Z" fill="#F5F5F5"/>
<path d="M237.586 125.032V147.741H208.24V125.032H210.772C210.928 126.177 211.492 127.228 212.361 127.99C213.23 128.752 214.345 129.175 215.501 129.18H230.325C231.481 129.175 232.597 128.752 233.467 127.99C234.337 127.228 234.902 126.178 235.059 125.032H237.586ZM238.134 124.484H234.544C234.525 125.591 234.072 126.647 233.281 127.423C232.491 128.2 231.427 128.634 230.319 128.632H215.501C214.394 128.632 213.332 128.197 212.542 127.421C211.753 126.645 211.3 125.59 211.282 124.484H207.692V148.289H238.134V124.484Z" fill="#EBEBEB"/>
<path d="M237.586 151.358V174.067H208.24V151.358H210.772C210.93 152.502 211.495 153.551 212.363 154.313C213.232 155.075 214.346 155.498 215.501 155.506H230.325C231.48 155.499 232.595 155.075 233.464 154.314C234.334 153.552 234.9 152.502 235.059 151.358H237.586ZM238.134 150.81H234.544C234.524 151.917 234.07 152.972 233.28 153.748C232.49 154.524 231.426 154.958 230.319 154.958H215.501C214.395 154.957 213.333 154.521 212.544 153.746C211.755 152.97 211.302 151.916 211.282 150.81H207.692V174.615H238.134V150.81Z" fill="#EBEBEB"/>
<path d="M162.268 121.316H152.119V177.782H162.268V121.316Z" fill="#F0F0F0"/>
<path d="M198.743 177.782H154.07V179.415H198.743V177.782Z" fill="#F0F0F0"/>
<path d="M162.263 177.782H200.689V121.316H162.263V177.782Z" fill="#F5F5F5"/>
<path d="M196.151 125.032V147.741H166.806V125.032H169.332C169.489 126.178 170.055 127.228 170.925 127.99C171.794 128.752 172.91 129.175 174.067 129.18H188.89C190.047 129.175 191.163 128.752 192.032 127.99C192.902 127.228 193.468 126.178 193.625 125.032H196.151ZM196.699 124.484H193.115C193.097 125.591 192.643 126.647 191.853 127.423C191.062 128.2 189.998 128.634 188.89 128.632H174.067C172.959 128.634 171.895 128.2 171.104 127.423C170.314 126.647 169.86 125.591 169.842 124.484H166.258V148.289H196.699V124.484Z" fill="#EBEBEB"/>
<path d="M196.151 151.358V174.067H166.806V151.358H169.332C169.491 152.502 170.057 153.552 170.927 154.314C171.796 155.075 172.911 155.499 174.067 155.506H188.89C190.046 155.499 191.161 155.075 192.03 154.314C192.9 153.552 193.466 152.502 193.625 151.358H196.151ZM196.699 150.81H193.115C193.095 151.917 192.641 152.972 191.851 153.748C191.061 154.524 189.998 154.958 188.89 154.958H174.067C172.959 154.958 171.896 154.524 171.106 153.748C170.316 152.972 169.862 151.917 169.842 150.81H166.258V174.615H196.699V150.81Z" fill="#EBEBEB"/>
<path d="M124.056 120.785H118.79V179.41H124.056V120.785Z" fill="#E6E6E6"/>
<path d="M125.717 120.785H122.062V179.41H125.717V120.785Z" fill="#F0F0F0"/>
<path d="M74.7416 127.262H125.717V120.79H74.7416V127.262Z" fill="#F0F0F0"/>
<path d="M76.5446 127.257H71.2783V179.41H76.5446V127.257Z" fill="#E6E6E6"/>
<path d="M78.2052 127.257H74.55V179.41H78.2052V127.257Z" fill="#F0F0F0"/>
<path d="M39.0614 127.257H33.7952V179.41H39.0614V127.257Z" fill="#E6E6E6"/>
<path d="M40.7218 127.257H37.0667V179.41H40.7218V127.257Z" fill="#F0F0F0"/>
<path d="M90.7267 127.257H85.4604V179.41H90.7267V127.257Z" fill="#E6E6E6"/>
<path d="M92.3873 127.257H88.7322V179.41H92.3873V127.257Z" fill="#F0F0F0"/>
<path d="M74.7472 120.785H33.7952V127.257H74.7472V120.785Z" fill="#E6E6E6"/>
<path d="M169.222 13.3767H40.8096V84.8688H169.222V13.3767Z" fill="#E0E0E0"/>
<path d="M176.275 13.3767H41.4563V84.8688H176.275V13.3767Z" fill="#F5F5F5"/>
<path d="M174.072 82.6658V15.5797L43.659 15.5797V82.6658L174.072 82.6658Z" fill="white"/>
<path d="M96.4643 82.6658L121.086 15.5797H80.4517L55.8301 82.6658H96.4643Z" fill="#F5F5F5"/>
<path d="M135.575 82.6658L160.197 15.5797H129.547L104.926 82.6658H135.575Z" fill="#F5F5F5"/>
<path d="M46.3608 108.038V109.479H47.2815L48.0432 120.785H59.2772L60.0389 109.479H60.9596V108.038H46.3608Z" fill="#E6E6E6"/>
<path d="M49.6707 80.1121C49.4899 73.7937 55.4686 73.0539 63.3269 74.2047C70.7961 75.3007 72.7361 72.0127 72.7361 72.0127C72.7361 72.0127 74.5993 87.0224 64.4777 90.557C54.8603 93.9107 49.868 86.4415 49.6707 80.1121Z" fill="#E6E6E6"/>
<path d="M53.5999 89.3624C52.1093 87.1704 47.528 85.0825 43.9003 92.1791C41.2754 97.3084 37.96 95.3904 37.96 95.3904C37.96 95.3904 43.988 104.383 50.9366 101.566C57.54 98.8866 56.2248 93.2422 53.5999 89.3624Z" fill="#E6E6E6"/>
<path d="M55.4575 99.6922C55.8247 97.8838 58.1975 95.341 62.3952 98.8976C65.4311 101.468 67.0367 99.3634 67.0367 99.3634C67.0367 99.3634 65.5845 106.707 60.4114 106.756C55.4959 106.811 54.7999 102.86 55.4575 99.6922Z" fill="#E6E6E6"/>
<path d="M53.2382 112.28C53.1789 112.28 53.1203 112.267 53.0664 112.243C53.0125 112.218 52.9645 112.182 52.9258 112.137C52.1531 111.228 52.7833 109.041 53.6547 106.022C54.7507 102.142 56.1755 97.3139 54.9918 93.8121C54.3369 91.9633 53.572 90.1553 52.7011 88.3979C51.0571 84.8688 49.5885 81.8219 50.7941 78.6325C50.8121 78.5792 50.8411 78.5302 50.8791 78.4886C50.9171 78.447 50.9634 78.4139 51.015 78.3912C51.0665 78.3685 51.1222 78.3568 51.1786 78.3568C51.2349 78.3569 51.2906 78.3687 51.3421 78.3914C51.3945 78.4108 51.4424 78.4405 51.4831 78.4788C51.5238 78.5171 51.5563 78.5632 51.5788 78.6143C51.6013 78.6654 51.6133 78.7206 51.6141 78.7764C51.6148 78.8323 51.6043 78.8877 51.5832 78.9394C50.4872 81.7945 51.8079 84.5619 53.4683 88.0636C54.3472 89.8443 55.123 91.6739 55.7919 93.5436C57.0523 97.2919 55.622 102.251 54.4657 106.241C53.7862 108.592 53.0847 111.025 53.5725 111.6C53.6075 111.642 53.6341 111.689 53.6506 111.741C53.6671 111.793 53.6732 111.847 53.6686 111.901C53.664 111.955 53.6488 112.007 53.6238 112.056C53.5989 112.104 53.5647 112.146 53.5231 112.181C53.445 112.25 53.3425 112.286 53.2382 112.28Z" fill="#E6E6E6"/>
<path d="M137 204.163C195.681 204.163 243.252 201.386 243.252 197.96C243.252 194.533 195.681 191.756 137 191.756C78.3186 191.756 30.748 194.533 30.748 197.96C30.748 201.386 78.3186 204.163 137 204.163Z" fill="#F5F5F5"/>
<path d="M87.0664 193.74C87.4821 193.946 87.9621 193.982 88.4035 193.839C88.4677 193.788 88.5147 193.718 88.5382 193.64C88.5617 193.562 88.5606 193.478 88.5351 193.4C88.5039 193.26 88.4193 193.139 88.2994 193.06C87.6637 192.638 85.9266 192.978 85.8553 192.995C85.8342 192.999 85.815 193.01 85.8003 193.025C85.7856 193.041 85.7761 193.061 85.7731 193.082C85.7709 193.103 85.7743 193.123 85.783 193.141C85.7917 193.16 85.8054 193.175 85.8225 193.186C86.2197 193.408 86.636 193.593 87.0664 193.74ZM87.998 193.148C88.0635 193.17 88.1261 193.199 88.1843 193.236C88.2215 193.258 88.2537 193.287 88.2792 193.322C88.3046 193.357 88.3227 193.396 88.3323 193.439C88.3597 193.586 88.3323 193.641 88.2775 193.669C87.9925 193.871 86.9349 193.521 86.1951 193.121C86.7923 193.015 87.4043 193.024 87.998 193.148Z" fill="#797979"/>
<path d="M85.8443 193.197H85.8882C86.4636 193.137 87.7623 192.567 87.8445 192.069C87.8445 191.953 87.8445 191.789 87.565 191.668C87.4698 191.628 87.3672 191.607 87.2636 191.607C87.16 191.607 87.0575 191.628 86.9622 191.668C86.2827 191.932 85.8005 193.022 85.7786 193.066C85.7704 193.082 85.7661 193.1 85.7661 193.118C85.7661 193.136 85.7704 193.154 85.7786 193.17C85.7974 193.185 85.8202 193.195 85.8443 193.197ZM87.4226 191.844H87.4828C87.6527 191.921 87.6418 191.997 87.6363 192.019C87.587 192.321 86.6773 192.803 86.058 192.94C86.263 192.483 86.6035 192.1 87.0335 191.844C87.1588 191.796 87.2972 191.796 87.4226 191.844Z" fill="#797979"/>
<path d="M85.3729 192.94H80.556C80.4714 192.937 80.389 192.966 80.3257 193.022C80.2624 193.079 80.2232 193.157 80.2162 193.241L79.8326 197.165C79.8266 197.265 79.8412 197.366 79.8753 197.46C79.9095 197.555 79.9626 197.641 80.0313 197.715C80.1 197.788 80.1829 197.847 80.275 197.887C80.3671 197.927 80.4664 197.948 80.5669 197.949C82.3041 197.921 84.803 197.817 86.984 197.817C89.5377 197.817 89.724 197.96 92.7216 197.96C94.53 197.96 94.804 196.129 94.0258 195.959C90.4802 195.203 89.6911 195.126 86.4798 193.285C86.1461 193.078 85.7652 192.959 85.3729 192.94Z" fill="#202020"/>
<path d="M63.5131 193.992C63.9863 194.047 64.4634 193.928 64.8557 193.658C64.9105 193.597 64.9456 193.521 64.9563 193.44C64.9671 193.358 64.953 193.276 64.916 193.203C64.8887 193.142 64.8478 193.088 64.7966 193.045C64.7453 193.003 64.6849 192.972 64.6201 192.956C63.9131 192.759 62.2472 193.636 62.176 193.674C62.156 193.684 62.1389 193.698 62.1264 193.717C62.1139 193.735 62.1064 193.756 62.1047 193.778C62.1054 193.799 62.1127 193.818 62.1255 193.834C62.1384 193.85 62.1561 193.861 62.176 193.866C62.6171 193.948 63.0645 193.99 63.5131 193.992ZM64.3351 193.137C64.4024 193.128 64.4706 193.128 64.5379 193.137C64.5781 193.144 64.6158 193.162 64.6474 193.188C64.679 193.214 64.7036 193.247 64.7187 193.285C64.7735 193.411 64.7187 193.477 64.7187 193.515C64.4721 193.8 63.3542 193.806 62.5267 193.691C63.0932 193.406 63.7053 193.222 64.3351 193.148V193.137Z" fill="#797979"/>
<path d="M62.198 193.877H62.2418C62.7898 193.636 64.0064 192.682 63.9954 192.184C63.9954 192.069 63.9352 191.921 63.6502 191.893C63.4344 191.874 63.2193 191.937 63.0474 192.069C62.5801 192.537 62.2552 193.128 62.1103 193.773C62.1016 193.787 62.0969 193.803 62.0969 193.819C62.0969 193.836 62.1016 193.852 62.1103 193.866C62.1234 193.874 62.1379 193.879 62.153 193.881C62.1681 193.883 62.1834 193.881 62.198 193.877ZM63.5351 192.09H63.6009C63.7817 192.09 63.7872 192.184 63.7872 192.206C63.7872 192.507 62.9652 193.258 62.3734 193.581C62.5024 193.065 62.7717 192.594 63.1515 192.222C63.2614 192.137 63.3963 192.091 63.5351 192.09Z" fill="#797979"/>
<path d="M60.7678 192.94H55.9509C55.8627 192.941 55.7772 192.971 55.7078 193.025C55.6384 193.08 55.589 193.156 55.5673 193.241L54.5809 197.165C54.5551 197.258 54.5516 197.356 54.5707 197.451C54.5897 197.546 54.6306 197.635 54.6903 197.711C54.75 197.788 54.8267 197.849 54.9143 197.89C55.0019 197.931 55.0979 197.951 55.1946 197.949C56.9318 197.921 59.4471 197.817 61.6336 197.817C64.1873 197.817 63.179 197.96 66.1766 197.96C67.985 197.96 68.5439 196.129 67.7877 195.959C64.3572 195.203 64.7518 195.126 61.8254 193.285C61.5117 193.074 61.1455 192.955 60.7678 192.94Z" fill="#202020"/>
<path d="M82.1125 81.2136C82.1125 81.2136 76.9941 115.107 74.9885 127.689C73.1527 139.34 65.6341 177.41 63.1845 189.175C63.0201 189.981 62.9763 190.726 62.5434 191.367C63.1243 192.112 62.6639 193.68 62.6639 193.68L54.9919 194.458C54.75 194.152 54.576 193.799 54.4815 193.421C54.387 193.043 54.3742 192.649 54.4439 192.266C54.5207 191.718 55.244 190.682 55.392 188.885C56.3729 177.015 60.735 144.497 61.8419 128.709C62.8831 113.885 66.8945 81.2191 66.8945 81.2191L82.1125 81.2136Z" fill="#797979"/>
<path opacity="0.3" d="M77.7504 98.092C72.6376 101.747 73.9857 117.234 74.846 128.72C74.9008 128.358 74.9611 128.013 75.0104 127.684C76.1064 120.818 78.1066 107.578 79.7177 96.996C79.4602 96.8974 78.0135 97.9057 77.7504 98.092Z" fill="black"/>
<path d="M90.486 81.2136C90.486 81.2136 90.1572 114.203 89.7791 127.662C89.4394 139.559 89.4065 178.418 86.9788 189.482C86.7322 190.611 87.3076 190.836 87.198 191.285C87.1607 191.44 87.1314 191.598 87.1104 191.756C87.0687 192.057 86.9354 192.338 86.7285 192.561C86.5216 192.783 86.2512 192.937 85.9541 193L80.3316 194.271C80.0929 194.325 79.8426 194.286 79.6324 194.16C79.4223 194.035 79.2684 193.833 79.2027 193.597C79.0298 192.864 78.9597 192.109 78.9945 191.356C78.9945 190.742 79.2849 189.455 79.2466 188.715C78.5068 174.817 76.66 139.669 76.3148 128.725C75.8435 113.743 74.9722 81.2136 74.9722 81.2136H90.486Z" fill="#797979"/>
<path d="M69.3058 49.5611C68.5057 51.0407 67.6618 52.608 66.8836 54.1424C66.1054 55.6768 65.3054 57.2441 64.5546 58.8004C64.182 59.5786 63.8148 60.3567 63.4586 61.1404C63.1024 61.924 62.7572 62.7022 62.4284 63.4803C61.7892 65.0035 61.2277 66.5582 60.746 68.1383L58.2033 64.4338C58.6866 64.552 59.1772 64.638 59.6719 64.6914C60.1768 64.7382 60.685 64.7382 61.1899 64.6914C61.7212 64.6597 62.248 64.5753 62.7626 64.4393C63.0257 64.3736 63.3106 64.2968 63.5572 64.2092C63.6833 64.1653 63.8203 64.1215 63.9408 64.0722L64.1326 64.0064L64.2148 63.9735C64.2148 63.9735 64.2751 63.9735 64.2696 63.9735C64.5741 63.6567 64.992 63.4738 65.4313 63.465C65.8707 63.4563 66.2955 63.6224 66.6123 63.9269C66.9292 64.2314 67.1121 64.6493 67.1208 65.0886C67.1296 65.528 66.9634 65.9528 66.6589 66.2696L66.4233 66.5875C66.352 66.6806 66.2863 66.7738 66.215 66.856C66.0726 67.0259 65.9301 67.1793 65.7821 67.3437C64.878 68.2798 63.7954 69.0251 62.5982 69.5357C61.7864 69.8851 60.934 70.1318 60.061 70.27C59.1866 70.4141 58.2988 70.46 57.4142 70.407C57.0468 70.3902 56.6863 70.3011 56.3534 70.1449C56.0204 69.9887 55.7215 69.7684 55.4737 69.4967C55.2258 69.2249 55.034 68.907 54.909 68.5611C54.7841 68.2152 54.7285 67.8481 54.7454 67.4807C54.754 67.3314 54.7741 67.183 54.8057 67.0368L54.8769 66.708C55.2892 64.8362 55.8218 62.9929 56.4716 61.1897C57.0854 59.4196 57.7868 57.7154 58.5211 56.0275C59.2554 54.3397 60.0446 52.6957 60.8611 51.0955C61.6776 49.4954 62.5051 47.8788 63.486 46.2512C63.7019 45.8683 63.9911 45.5318 64.3371 45.2607C64.683 44.9896 65.079 44.7893 65.5024 44.6712C65.9258 44.5532 66.3682 44.5197 66.8046 44.5726C67.2409 44.6256 67.6625 44.7639 68.0454 44.9798C68.4282 45.1957 68.7648 45.4849 69.0359 45.8309C69.307 46.1769 69.5073 46.5728 69.6253 46.9962C69.7434 47.4196 69.7769 47.8621 69.7239 48.2984C69.671 48.7347 69.5326 49.1563 69.3167 49.5392L69.3058 49.5611Z" fill="#F3BE8F"/>
<path d="M63.6121 64.401L66.1986 62.4008L68.3906 66.993C68.3906 66.993 66.2589 68.3027 64.2697 67.541L63.6121 64.401Z" fill="#F3BE8F"/>
<path d="M69.9852 59.8416L71.0921 64.2201L68.374 66.993L66.1985 62.4007L69.9852 59.8416Z" fill="#F3BE8F"/>
<path d="M85.9209 28.0028C85.9209 28.359 86.0579 28.6659 86.2881 28.6878C86.5182 28.7097 86.7319 28.4357 86.7593 28.0795C86.7867 27.7233 86.6278 27.4219 86.3922 27.4C86.1565 27.3781 85.9483 27.6521 85.9209 28.0028Z" fill="#202020"/>
<path d="M86.0361 28.6604C86.3683 29.7827 86.8532 30.854 87.4773 31.8442C87.2201 31.996 86.9326 32.0894 86.6352 32.1179C86.3379 32.1463 86.0379 32.109 85.7566 32.0087L86.0361 28.6604Z" fill="#F3BE8F"/>
<path d="M108.504 48.6569L108.296 43.6591L103.024 45.1552C103.123 46.0068 103.408 46.8261 103.86 47.5546C104.312 48.2831 104.919 48.9028 105.638 49.3693L108.504 48.6569Z" fill="#F3BE8F"/>
<path d="M106.498 40.0369L101.994 42.5357L103.041 45.1552L108.301 43.6591L106.498 40.0369Z" fill="#F3BE8F"/>
<path d="M106.416 37.4503H101.588C101.468 37.4524 101.352 37.4987 101.263 37.5806C101.174 37.6624 101.118 37.774 101.106 37.8942L100.213 47.1773C100.207 47.2334 100.212 47.2902 100.23 47.3439C100.247 47.3976 100.276 47.447 100.313 47.489C100.351 47.5309 100.397 47.5644 100.449 47.5871C100.501 47.6099 100.556 47.6215 100.613 47.6212H105.435C105.556 47.6181 105.672 47.5716 105.762 47.49C105.851 47.4085 105.909 47.2975 105.923 47.1773L106.811 37.8942C106.819 37.8382 106.814 37.7812 106.798 37.7271C106.782 37.673 106.754 37.623 106.716 37.5808C106.679 37.5385 106.633 37.505 106.581 37.4824C106.529 37.4599 106.473 37.4489 106.416 37.4503Z" fill="#797979"/>
<path d="M106.082 37.4503H101.259C101.139 37.4524 101.023 37.4987 100.934 37.5805C100.845 37.6624 100.789 37.774 100.777 37.8942L99.884 47.1773C99.8778 47.2334 99.8836 47.2902 99.9009 47.3439C99.9182 47.3976 99.9467 47.447 99.9845 47.489C100.022 47.5309 100.068 47.5643 100.12 47.5871C100.172 47.6099 100.228 47.6215 100.284 47.6212H105.106C105.227 47.6179 105.342 47.5712 105.431 47.4896C105.519 47.408 105.575 47.297 105.589 47.1773L106.482 37.8942C106.489 37.8379 106.484 37.7808 106.467 37.7267C106.45 37.6726 106.422 37.6227 106.384 37.5806C106.346 37.5385 106.299 37.505 106.247 37.4825C106.195 37.4601 106.139 37.4491 106.082 37.4503Z" fill="#797979"/>
<path d="M100.284 47.4294C100.255 47.4303 100.227 47.4249 100.2 47.4135C100.174 47.4022 100.15 47.3851 100.131 47.3636C100.111 47.3413 100.097 47.3151 100.088 47.2867C100.08 47.2584 100.078 47.2286 100.081 47.1992L100.975 37.9161C100.983 37.8424 101.017 37.774 101.071 37.7237C101.126 37.6733 101.196 37.6443 101.271 37.6421H106.093C106.121 37.6415 106.149 37.6465 106.176 37.6569C106.202 37.6672 106.226 37.6827 106.246 37.7024C106.265 37.7251 106.279 37.7513 106.288 37.7796C106.296 37.8078 106.299 37.8375 106.296 37.8668L105.403 47.1828C105.395 47.2565 105.36 47.3249 105.306 47.3752C105.251 47.4256 105.181 47.4546 105.107 47.4568L100.284 47.4294Z" fill="white"/>
<path d="M104.838 42.4974C104.795 42.9612 104.588 43.3944 104.255 43.7197C103.921 44.045 103.483 44.2411 103.019 44.2729C102.804 44.2769 102.59 44.2339 102.393 44.147C102.197 44.06 102.021 43.9312 101.879 43.7694C101.737 43.6077 101.632 43.417 101.572 43.2105C101.511 43.0041 101.496 42.7869 101.528 42.5741C101.571 42.1104 101.778 41.6771 102.111 41.3518C102.445 41.0265 102.883 40.8304 103.347 40.7986C103.563 40.7937 103.777 40.836 103.974 40.9227C104.171 41.0093 104.347 41.1381 104.489 41.3001C104.631 41.4621 104.736 41.6532 104.796 41.8601C104.857 42.0669 104.871 42.2845 104.838 42.4974Z" fill="#797979"/>
<path d="M107.485 45.0511C106.521 43.8953 105.689 42.6364 105.002 41.2973C104.72 41.4261 104.495 41.654 104.369 41.9379C104.244 42.2218 104.228 42.5418 104.323 42.8372C104.525 43.4454 105.298 45.0292 105.298 45.0292C105.298 45.0292 104.926 46.9307 105.627 48.2569C106.328 49.583 107.485 45.0511 107.485 45.0511Z" fill="#F3BE8F"/>
<path d="M84.7866 25.9204C84.7368 25.9043 84.6942 25.8714 84.666 25.8272C84.6513 25.804 84.6415 25.7781 84.6371 25.751C84.6327 25.7239 84.6339 25.6961 84.6406 25.6695C84.6472 25.6428 84.6592 25.6178 84.6759 25.596C84.6925 25.5741 84.7134 25.5558 84.7373 25.5423C85.0181 25.3644 85.3378 25.2576 85.6691 25.2308C86.0004 25.2041 86.3332 25.2583 86.6388 25.3888C86.6638 25.4005 86.6862 25.4171 86.7046 25.4377C86.7229 25.4583 86.7369 25.4824 86.7456 25.5085C86.7543 25.5347 86.7576 25.5623 86.7553 25.5898C86.7529 25.6173 86.745 25.644 86.732 25.6683C86.7073 25.7163 86.6649 25.7529 86.6138 25.7703C86.5627 25.7877 86.5068 25.7845 86.458 25.7615C86.2142 25.662 85.9501 25.6224 85.6878 25.6463C85.4256 25.6701 85.1729 25.7566 84.951 25.8985C84.927 25.9142 84.8997 25.9243 84.8713 25.9281C84.8428 25.9319 84.8139 25.9293 84.7866 25.9204Z" fill="#202020"/>
<path d="M74.287 31.9922C74.9446 35.2199 75.3556 39.6916 73.1143 41.8562C73.1143 41.8562 74.0239 45.1442 80.0191 45.1442C86.5951 45.1442 83.1701 42.2727 83.1701 42.2727C80.4301 41.4178 80.4301 38.2942 81.0329 35.7899L74.287 31.9922Z" fill="#F3BE8F"/>
<path d="M71.8977 44.0044C71.3004 43.1769 71.3059 40.5465 71.9306 40.0807C72.9389 39.3354 77.2682 39.1601 83.1098 40.5027C82.5016 43.0509 83.8442 44.388 83.8442 44.388L71.8977 44.0044Z" fill="#797979"/>
<path d="M65.2122 42.8481C61.0803 43.7961 58.3074 54.8274 58.3074 54.8274L66.0999 60.68C68.237 58.389 69.7355 55.5773 70.4456 52.5258C71.8375 46.991 69.4427 41.8781 65.2122 42.8481Z" fill="#202020"/>
<path opacity="0.1" d="M65.2122 42.8481C61.0803 43.7961 58.3074 54.8274 58.3074 54.8274L66.0999 60.68C68.237 58.389 69.7355 55.5773 70.4456 52.5258C71.8375 46.991 69.4427 41.8781 65.2122 42.8481Z" fill="white"/>
<path d="M89.5599 46.032C91.8286 48.5583 93.9877 51.1174 96.1359 53.6053C97.2319 54.8493 98.3279 56.0768 99.4239 57.2386C100.433 58.3525 101.523 59.391 102.684 60.3457C102.905 60.5231 103.136 60.6877 103.375 60.8389C103.556 60.9595 103.72 61.0033 103.545 60.9814C103.336 60.9637 103.126 60.986 102.926 61.0472C102.753 61.0991 102.589 61.1747 102.438 61.2719C102.329 61.3371 102.23 61.4163 102.142 61.5075C102.093 61.5952 102.213 61.5075 102.323 61.2993C102.631 60.7587 102.872 60.1828 103.041 59.584C103.249 58.8935 103.441 58.1537 103.589 57.392C104.241 54.3232 104.685 50.9969 105.068 47.7417L108.384 47.665C108.893 51.1292 109.04 54.6371 108.822 58.1318C108.757 59.0508 108.642 59.9655 108.477 60.8718C108.298 61.9192 107.996 62.9419 107.578 63.9187C107.273 64.6044 106.852 65.2327 106.334 65.7764C106.102 66.0203 105.838 66.2322 105.55 66.4066C105.22 66.6138 104.862 66.7725 104.487 66.8779C103.879 67.045 103.242 67.0824 102.619 66.9875C101.853 66.8694 101.112 66.6249 100.427 66.2641C99.9331 66.0063 99.4555 65.719 98.9964 65.4038C97.4909 64.3121 96.0745 63.1027 94.7604 61.787C93.5 60.554 92.3163 59.2991 91.1545 58.0441C88.8475 55.5179 86.6555 52.9532 84.4963 50.4215L89.5599 46.032Z" fill="#F3BE8F"/>
<path opacity="0.4" d="M68.8234 50.6078C66.593 52.8327 65.8916 56.8824 65.7437 60.4006L66.1108 60.6801C68.2462 58.3878 69.7444 55.5766 70.4565 52.5258C70.5387 52.197 70.6099 51.8627 70.6702 51.5394L68.8234 50.6078Z" fill="#202020"/>
<path d="M58.0169 54.252L57.858 54.6739C57.8198 54.7962 57.8215 54.9274 57.8629 55.0486C57.9043 55.1698 57.9832 55.2746 58.0882 55.348L65.541 60.9869C65.6642 61.0798 65.8186 61.1215 65.9718 61.1031C66.1251 61.0847 66.2653 61.0077 66.363 60.8883V60.8499C66.412 60.7895 66.4486 60.72 66.4707 60.6454C66.4928 60.5708 66.5 60.4926 66.4918 60.4152C66.4837 60.3379 66.4604 60.2629 66.4232 60.1945C66.3861 60.1262 66.3358 60.0658 66.2753 60.0169L58.954 53.9889C58.8803 53.9279 58.7929 53.8856 58.6993 53.8658C58.6057 53.8459 58.5087 53.8491 58.4166 53.8749C58.3244 53.9008 58.2399 53.9486 58.1703 54.0143C58.1008 54.0799 58.0481 54.1615 58.0169 54.252Z" fill="#797979"/>
<path d="M91.3901 47.2705C92.3272 52.0381 93.1492 68.8452 90.6723 88.2335H65.5519C65.3656 84.6112 68.8399 59.9183 65.2231 42.8481C67.8289 42.3424 70.4649 42.0074 73.1143 41.8453C76.4561 41.6505 79.8064 41.6505 83.1482 41.8453C84.2442 41.9439 85.3402 42.1028 86.3102 42.2727C87.5618 42.4972 88.7164 43.0945 89.6228 43.9863C90.5292 44.878 91.1452 46.0227 91.3901 47.2705Z" fill="#202020"/>
<path opacity="0.1" d="M91.3901 47.2705C92.3272 52.0381 93.1492 68.8452 90.6723 88.2335H65.5519C65.3656 84.6112 68.8399 59.9183 65.2231 42.8481C67.8289 42.3424 70.4649 42.0074 73.1143 41.8453C76.4561 41.6505 79.8064 41.6505 83.1482 41.8453C84.2442 41.9439 85.3402 42.1028 86.3102 42.2727C87.5618 42.4972 88.7164 43.0945 89.6228 43.9863C90.5292 44.878 91.1452 46.0227 91.3901 47.2705Z" fill="white"/>
<path opacity="0.4" d="M92.0642 53.704L88.1954 54.6301C87.9652 57.5455 90.3545 60.9266 92.3054 63.1625C92.3218 59.5292 92.2286 56.3234 92.0642 53.704Z" fill="#202020"/>
<path d="M74.1552 26.1889C74.0621 30.5729 73.7826 33.1211 75.7992 35.5542C78.8297 39.2149 84.37 37.7024 85.7674 33.4499C87.0278 29.6139 86.973 23.1091 82.852 20.9939C81.952 20.5189 80.945 20.2835 79.9277 20.3104C78.9105 20.3373 77.9173 20.6255 77.0437 21.1474C76.1701 21.6692 75.4455 22.4071 74.9396 23.2901C74.4337 24.173 74.1636 25.1713 74.1552 26.1889Z" fill="#F3BE8F"/>
<path d="M83.6141 29.4605C83.6141 29.4605 85.3512 30.8579 85.3841 28.6604C85.4404 27.6061 85.3612 26.549 85.1485 25.5149C85.1485 25.5149 86.2719 25.4436 86.1732 23.575C86.0746 21.7063 83.2195 18.895 78.7643 19.5855C74.309 20.276 74.6104 22.5009 74.6104 22.5009C74.6104 22.5009 70.484 22.7639 72.8075 29.4605C74.4953 34.3322 74.7529 35.22 74.7529 35.22C74.7529 35.22 78.8684 36.0913 79.7835 35.1433C80.6987 34.1952 81.8769 28.8522 83.6141 29.4605Z" fill="#202020"/>
<path d="M73.3389 25.208C69.0591 27.4 65.5628 30.8469 74.3692 30.8359C83.1755 30.825 85.4169 24.2599 85.4169 24.2599L73.3389 25.208Z" fill="#797979"/>
<path opacity="0.2" d="M73.3389 25.208C69.0591 27.4 65.5628 30.8469 74.3692 30.8359C83.1755 30.825 85.4169 24.2599 85.4169 24.2599L73.3389 25.208Z" fill="white"/>
<path d="M86.3429 23.4489C85.7949 24.4737 83.4769 26.3972 81.926 27.2849C80.3752 28.1727 77.1968 28.4796 75.9857 28.4357C74.7746 28.3919 72.2155 28.1069 71.8921 27.2849C71.5688 26.4629 71.6017 23.9969 71.7058 22.4077C71.8099 20.8185 76.172 18.0237 77.9092 17.6566C79.6463 17.2894 83.3892 18.3799 84.4852 19.3609C85.5812 20.3418 86.3429 23.4489 86.3429 23.4489Z" fill="#797979"/>
<path d="M81.1807 28.496C81.1759 29.5851 81.5282 30.6457 82.1836 31.5155C83.0604 32.6498 84.118 32.0635 84.3756 30.814C84.6222 29.6687 84.4632 27.7014 83.3344 27.0164C82.2055 26.3314 81.2026 27.1918 81.1807 28.496Z" fill="#F3BE8F"/>
<path d="M82.1508 48.7172C80.0738 54.4219 92.9518 61.3212 92.9518 61.3212L97.8838 54.1972C97.8838 54.1972 94.2561 47.0732 89.8118 43.84C84.3428 39.8725 83.729 44.388 82.1508 48.7172Z" fill="#202020"/>
<path opacity="0.1" d="M82.1508 48.7172C80.0738 54.4219 92.9518 61.3212 92.9518 61.3212L97.8838 54.1972C97.8838 54.1972 94.2561 47.0732 89.8118 43.84C84.3428 39.8725 83.729 44.388 82.1508 48.7172Z" fill="white"/>
<path d="M97.977 53.5834L98.2565 53.9506C98.3322 54.0539 98.373 54.1787 98.373 54.3068C98.373 54.4349 98.3322 54.5596 98.2565 54.663L93.2861 61.4089C93.2013 61.5248 93.0773 61.6059 92.9372 61.6371C92.7971 61.6684 92.6503 61.6476 92.5244 61.5787L92.4477 61.5349C92.3742 61.4961 92.3097 61.4422 92.2584 61.3767C92.2071 61.3113 92.1702 61.2358 92.15 61.1552C92.1298 61.0745 92.1269 60.9905 92.1414 60.9086C92.1558 60.8268 92.1874 60.7489 92.2339 60.68L97.0015 53.6108C97.0545 53.5312 97.1258 53.4655 97.2094 53.4191C97.293 53.3728 97.3866 53.3472 97.4822 53.3445C97.5777 53.3418 97.6726 53.3621 97.7587 53.4037C97.8448 53.4453 97.9196 53.5069 97.977 53.5834Z" fill="#797979"/>
<path d="M209.172 32.195H132.194C130.297 32.2225 128.481 32.9626 127.105 34.2684C125.729 35.5741 124.895 37.3498 124.769 39.2423L116.79 187.416C116.733 188.324 116.863 189.235 117.173 190.091C117.483 190.947 117.966 191.729 118.591 192.39C119.217 193.052 119.972 193.577 120.809 193.933C121.647 194.29 122.549 194.47 123.459 194.463H200.436C202.333 194.437 204.151 193.697 205.527 192.391C206.903 191.085 207.737 189.309 207.862 187.416L215.841 39.2533C215.899 38.344 215.77 37.4323 215.461 36.5752C215.152 35.7181 214.669 34.934 214.043 34.2717C213.418 33.6094 212.662 33.0831 211.824 32.7259C210.986 32.3686 210.083 32.1879 209.172 32.195Z" fill="#202020"/>
<path d="M143.001 30.277H139.203V30.825H143.001V30.277Z" fill="#797979"/>
<path d="M123.135 35.2857L122.659 35.0117C123.479 33.5851 124.658 32.3977 126.079 31.5672C127.499 30.7367 129.113 30.2919 130.758 30.277H136.742V30.825H130.758C129.209 30.8398 127.691 31.2592 126.354 32.0416C125.016 32.8241 123.907 33.9424 123.135 35.2857Z" fill="#797979"/>
<path d="M207.736 32.195H130.758C128.862 32.2225 127.045 32.9626 125.669 34.2684C124.293 35.5741 123.459 37.3498 123.333 39.2423L115.359 187.416C115.301 188.324 115.431 189.234 115.74 190.09C116.05 190.946 116.532 191.729 117.157 192.39C117.782 193.051 118.537 193.577 119.374 193.933C120.211 194.29 121.113 194.47 122.023 194.463H199.006C200.902 194.436 202.718 193.695 204.093 192.39C205.468 191.084 206.301 189.308 206.426 187.416L214.405 39.2533C214.464 38.344 214.334 37.4323 214.025 36.5752C213.716 35.7181 213.233 34.934 212.608 34.2717C211.982 33.6094 211.226 33.0831 210.388 32.7259C209.55 32.3686 208.647 32.1879 207.736 32.195Z" fill="#797979"/>
<path d="M122.089 193.28C121.331 193.287 120.579 193.138 119.881 192.842C119.183 192.546 118.554 192.109 118.032 191.559C117.511 191.009 117.108 190.357 116.85 189.644C116.592 188.931 116.484 188.173 116.532 187.416L124.505 39.2423C124.609 37.6649 125.303 36.1845 126.45 35.0966C127.597 34.0087 129.112 33.3933 130.692 33.3732H207.692C208.45 33.3656 209.202 33.5146 209.901 33.811C210.599 34.1074 211.229 34.5447 211.75 35.0956C212.272 35.6465 212.674 36.2991 212.932 37.0127C213.19 37.7262 213.298 38.4852 213.248 39.2423L205.253 187.416C205.151 188.994 204.457 190.476 203.31 191.565C202.163 192.654 200.648 193.27 199.066 193.291L122.089 193.28Z" fill="white"/>
<path opacity="0.2" d="M125.36 91.242L127.711 47.6212C127.764 46.7796 128.131 45.9885 128.74 45.4056C129.35 44.8226 130.156 44.4906 130.999 44.4757H206.13C206.537 44.471 206.94 44.5505 207.314 44.7092C207.689 44.8678 208.026 45.1023 208.306 45.3977C208.585 45.6931 208.801 46.0432 208.938 46.4258C209.076 46.8085 209.133 47.2155 209.106 47.6212L206.755 91.242C206.703 92.0837 206.335 92.8748 205.726 93.4577C205.117 94.0407 204.31 94.3727 203.467 94.3876H128.336C127.929 94.3923 127.526 94.3128 127.152 94.1541C126.777 93.9954 126.44 93.761 126.16 93.4656C125.881 93.1702 125.665 92.8201 125.528 92.4375C125.39 92.0548 125.333 91.6478 125.36 91.242Z" fill="#797979"/>
<path d="M171.206 38.8203H166.822C166.24 38.8265 165.673 38.6322 165.217 38.27C164.761 37.9078 164.443 37.3997 164.318 36.8311L163.419 32.8033H174.965L173.957 36.6393C173.8 37.2537 173.446 37.7996 172.949 38.1936C172.452 38.5875 171.84 38.8077 171.206 38.8203Z" fill="#797979"/>
<path opacity="0.5" d="M170.488 35.8118C170.464 36.1976 170.294 36.5599 170.014 36.8261C169.733 37.0923 169.363 37.2428 168.976 37.2475C168.79 37.2495 168.606 37.213 168.436 37.1405C168.265 37.068 168.111 36.961 167.983 36.8263C167.855 36.6915 167.757 36.5318 167.694 36.3572C167.631 36.1827 167.605 35.997 167.617 35.8118C167.642 35.4259 167.811 35.0637 168.092 34.7975C168.372 34.5313 168.743 34.3808 169.129 34.376C169.315 34.3733 169.5 34.4092 169.671 34.4814C169.842 34.5536 169.996 34.6606 170.124 34.7955C170.252 34.9305 170.35 35.0905 170.413 35.2654C170.476 35.4404 170.501 35.6264 170.488 35.8118Z" fill="white"/>
<path d="M182.024 144.184H144.891C144.815 144.184 144.742 144.156 144.687 144.104C144.632 144.052 144.599 143.98 144.595 143.905L143.411 117.683C143.411 117.643 143.418 117.604 143.432 117.567C143.447 117.53 143.468 117.497 143.496 117.468C143.523 117.44 143.556 117.417 143.592 117.401C143.629 117.385 143.668 117.377 143.707 117.376H186.029C186.072 117.376 186.115 117.385 186.153 117.403C186.192 117.421 186.227 117.447 186.254 117.48C186.282 117.512 186.303 117.55 186.314 117.59C186.325 117.631 186.327 117.674 186.32 117.716L182.314 143.938C182.302 144.006 182.267 144.069 182.214 144.114C182.161 144.159 182.093 144.184 182.024 144.184ZM145.171 143.576H181.771L185.69 117.941H144.014L145.171 143.576Z" fill="#797979"/>
<path d="M180.177 149.483H147.752C147.71 149.489 147.667 149.486 147.627 149.474C147.586 149.462 147.549 149.441 147.517 149.413C147.485 149.386 147.46 149.351 147.442 149.313C147.425 149.274 147.416 149.233 147.416 149.19C147.416 149.148 147.425 149.106 147.442 149.068C147.46 149.029 147.485 148.995 147.517 148.967C147.549 148.939 147.586 148.919 147.627 148.907C147.667 148.895 147.71 148.891 147.752 148.897H180.177C180.41 148.892 180.635 148.804 180.81 148.65C180.986 148.496 181.101 148.284 181.136 148.053L186.04 115.507C186.052 115.438 186.087 115.375 186.14 115.329C186.193 115.283 186.261 115.257 186.331 115.255H188.441C188.519 115.255 188.594 115.287 188.65 115.342C188.705 115.398 188.737 115.473 188.737 115.551C188.737 115.63 188.705 115.705 188.65 115.761C188.594 115.816 188.519 115.847 188.441 115.847H186.583L181.717 148.141C181.663 148.512 181.478 148.851 181.196 149.098C180.913 149.344 180.552 149.481 180.177 149.483Z" fill="#797979"/>
<path d="M150.218 155.007C149.82 155.011 149.427 154.933 149.061 154.778C148.695 154.622 148.365 154.393 148.092 154.105C147.819 153.816 147.609 153.474 147.474 153.101C147.339 152.727 147.282 152.33 147.308 151.933C147.362 151.116 147.722 150.35 148.316 149.787C148.91 149.224 149.695 148.906 150.514 148.897C150.91 148.893 151.303 148.971 151.668 149.126C152.033 149.281 152.362 149.51 152.635 149.798C152.908 150.086 153.118 150.427 153.253 150.8C153.387 151.173 153.444 151.57 153.418 151.966C153.366 152.783 153.007 153.55 152.414 154.114C151.82 154.677 151.036 154.997 150.218 155.007ZM150.514 149.483C149.845 149.492 149.203 149.752 148.718 150.212C148.232 150.672 147.938 151.298 147.894 151.966C147.872 152.283 147.916 152.6 148.023 152.899C148.131 153.198 148.299 153.471 148.517 153.702C148.736 153.932 149 154.114 149.292 154.237C149.585 154.36 149.9 154.421 150.218 154.415C150.886 154.407 151.527 154.147 152.011 153.687C152.496 153.226 152.789 152.6 152.832 151.933C152.854 151.617 152.81 151.299 152.703 151.001C152.596 150.703 152.428 150.43 152.21 150.199C151.992 149.969 151.729 149.787 151.437 149.663C151.145 149.54 150.831 149.479 150.514 149.483Z" fill="#797979"/>
<path d="M178.478 155.007C178.081 155.01 177.688 154.932 177.323 154.776C176.958 154.62 176.629 154.391 176.356 154.103C176.084 153.814 175.874 153.473 175.739 153.099C175.604 152.726 175.548 152.329 175.574 151.933C175.625 151.116 175.983 150.349 176.577 149.786C177.171 149.223 177.956 148.905 178.774 148.897C179.171 148.893 179.564 148.971 179.929 149.126C180.295 149.281 180.624 149.51 180.897 149.798C181.17 150.086 181.381 150.427 181.516 150.8C181.652 151.173 181.709 151.57 181.684 151.966C181.63 152.783 181.27 153.55 180.676 154.114C180.082 154.678 179.297 154.997 178.478 155.007ZM178.774 149.483C178.105 149.49 177.464 149.75 176.979 150.211C176.494 150.671 176.201 151.298 176.16 151.966C176.138 152.282 176.182 152.599 176.289 152.898C176.396 153.196 176.563 153.469 176.781 153.699C176.999 153.93 177.263 154.112 177.555 154.235C177.847 154.359 178.161 154.42 178.478 154.415C179.147 154.407 179.788 154.147 180.274 153.687C180.759 153.227 181.053 152.601 181.097 151.933C181.12 151.616 181.076 151.298 180.968 151C180.861 150.701 180.693 150.428 180.474 150.197C180.256 149.967 179.992 149.785 179.699 149.662C179.406 149.539 179.091 149.478 178.774 149.483Z" fill="#797979"/>
<path d="M171.842 72.3634C171.914 70.5014 172.344 68.6707 173.108 66.9711C175.217 68.7685 177.229 70.8948 177.229 70.8948C177.229 70.8948 189.592 71.8318 191.712 72.6484C191.263 74.1608 190.94 75.6295 190.94 75.6295L171.842 72.3634Z" fill="#202020"/>
<path d="M147.412 91.4064C147.321 91.1362 147.203 90.8756 147.061 90.6283C146.753 90.1649 146.596 89.6173 146.612 89.061C146.671 88.7223 146.798 88.3992 146.987 88.1117C147.175 87.8243 147.421 87.5785 147.708 87.3896C148.931 86.4809 150.451 86.0662 151.966 86.2278C152.987 86.3394 153.966 86.6946 154.821 87.2635C154.763 86.6449 154.885 86.0227 155.172 85.4716C155.458 84.9243 155.902 84.4753 156.446 84.1823C156.99 83.8893 157.609 83.7658 158.224 83.8276C158.652 83.8911 159.056 84.0691 159.391 84.3427C159.391 84.255 159.391 84.1673 159.391 84.0796C159.386 83.6501 159.478 83.225 159.661 82.836C159.843 82.447 160.11 82.1041 160.443 81.8328C161.238 81.2848 162.296 81.3396 163.666 82.0246L163.934 82.1616C163.689 81.4409 163.54 80.691 163.49 79.9313C163.45 79.5782 163.501 79.2206 163.639 78.8931C163.777 78.5657 163.998 78.2796 164.279 78.0626C165.123 77.4488 166.422 77.5475 167.452 77.8708C167.434 77.3759 167.556 76.8859 167.803 76.457C168.18 75.865 168.734 75.4074 169.387 75.1495C170.039 74.8916 170.757 74.8467 171.436 75.0212L171.288 75.5692C170.733 75.4279 170.147 75.4646 169.613 75.674C169.079 75.8834 168.624 76.255 168.313 76.7364C168.076 77.1434 167.987 77.6195 168.061 78.0845C168.402 78.2174 168.696 78.4498 168.905 78.7517C169.113 79.0537 169.225 79.4111 169.228 79.7778L169.195 80.1724L168.828 80.0244C168.535 79.8993 168.273 79.7119 168.06 79.4753C167.847 79.2388 167.689 78.9586 167.595 78.6544L167.546 78.501C166.663 78.1777 165.354 77.9859 164.636 78.501C164.433 78.6622 164.276 78.8732 164.18 79.1134C164.084 79.3537 164.052 79.6147 164.088 79.871C164.145 80.6351 164.302 81.3886 164.553 82.1123C164.597 82.2384 164.679 82.4137 164.762 82.6C164.844 82.7864 164.915 82.9234 164.981 83.0823C165.092 83.295 165.145 83.5331 165.134 83.7728H164.548C164.541 83.6284 164.506 83.4869 164.444 83.3563C164.191 82.9868 163.835 82.7007 163.419 82.5343C162.252 81.9534 161.397 81.8767 160.789 82.2986C160.538 82.5297 160.34 82.8114 160.206 83.1251C160.073 83.4388 160.008 83.7773 160.016 84.118C159.989 84.4371 159.989 84.7579 160.016 85.077C160.252 85.4751 160.359 85.9364 160.323 86.3977L160.23 87.7403L159.758 86.4799C159.615 86.0935 159.512 85.6931 159.452 85.2853C159.306 85.0553 159.114 84.8587 158.887 84.7085C158.661 84.5584 158.405 84.4579 158.136 84.4139C157.642 84.371 157.147 84.4744 156.711 84.7112C156.276 84.948 155.919 85.3077 155.687 85.7456C155.366 86.3808 155.305 87.1158 155.517 87.7951C155.621 87.8828 155.725 87.9759 155.824 88.0746C155.907 88.1524 155.968 88.2504 156.001 88.3589C156.035 88.4674 156.04 88.5828 156.016 88.6938C155.996 88.7668 155.957 88.8327 155.901 88.8841C155.846 88.9355 155.777 88.9702 155.703 88.9843L155.517 89.0226L155.407 88.8692C155.247 88.6439 155.116 88.399 155.018 88.1403C154.133 87.4023 153.051 86.9394 151.906 86.8087C150.541 86.6677 149.173 87.041 148.07 87.8554C147.621 88.1461 147.302 88.6001 147.182 89.1213C147.19 89.5612 147.325 89.9894 147.571 90.3543C147.733 90.6375 147.865 90.9368 147.966 91.2475L147.412 91.4064Z" fill="#202020"/>
<path d="M139.192 90.7379C144.316 88.7815 161.852 85.1044 164.778 81.9699C167.008 79.5861 169.633 74.7856 170.751 72.6539C170.914 72.3416 171.171 72.0888 171.486 71.9313C171.801 71.7739 172.157 71.7199 172.505 71.777L190.32 74.6869C190.728 74.7538 191.096 74.9686 191.355 75.2901C191.614 75.6117 191.745 76.0174 191.723 76.4296L191.63 78.1174L191.657 95.8781L145.888 97.122L139.192 90.7379Z" fill="#797979"/>
<path d="M137.121 96.3768C137.121 96.3768 138.419 91.5982 139.203 90.7378C139.987 89.8775 159.753 92.3818 161.413 96.8645C153.315 97.3061 145.195 97.1431 137.121 96.3768Z" fill="#202020"/>
<path d="M157.183 96.996C154.015 93.1984 151.215 90.2556 151.39 88.4801C151.566 86.7046 153.336 86.2004 156.081 85.2798C158.827 84.3591 164.077 82.7206 166.614 78.8024C169.151 74.8842 170.795 77.3941 171.546 79.1696C172.297 80.9451 173.256 85.5538 188.095 81.252C183.443 85.6634 166.115 96.996 166.115 96.996H157.183Z" fill="#202020"/>
<path d="M164.718 96.3768C164.718 96.3768 165.266 90.135 170.587 86.8525C175.908 83.57 190.742 81.1862 191.904 78.9778C192.132 80.4162 192.196 81.8759 192.096 83.3289C192.096 83.3289 178.396 88.8418 178.434 96.9905C171.086 96.996 164.718 96.3768 164.718 96.3768Z" fill="white"/>
<path d="M136.118 97.3632C136.089 97.4845 136.086 97.6104 136.108 97.733C136.131 97.8556 136.179 97.9721 136.249 98.0752C136.319 98.1783 136.41 98.2656 136.516 98.3317C136.621 98.3978 136.74 98.4412 136.863 98.4592C143.597 99.4529 150.392 99.982 157.199 100.043H191.4C191.659 100.039 191.908 99.938 192.096 99.7592C192.284 99.5804 192.397 99.3373 192.414 99.0784L192.6 95.5712C192.609 95.441 192.59 95.3103 192.544 95.1882C192.498 95.0661 192.425 94.9556 192.332 94.8643C192.238 94.7731 192.126 94.7032 192.003 94.6597C191.88 94.6161 191.749 94.6 191.619 94.6122C186.238 95.0451 160.898 96.9029 137.411 95.6644C137.201 95.655 136.993 95.7111 136.816 95.825C136.64 95.9389 136.503 96.1049 136.424 96.3001C136.294 96.6456 136.191 97.0011 136.118 97.3632Z" fill="#797979"/>
<path d="M154.459 96.3658C148.859 96.3658 143.072 96.2507 137.4 95.9493C137.364 95.9479 137.329 95.9394 137.296 95.9243C137.263 95.9092 137.234 95.8879 137.209 95.8614C137.185 95.8349 137.166 95.8039 137.154 95.7701C137.141 95.7363 137.135 95.7004 137.137 95.6644C137.141 95.5912 137.174 95.5226 137.228 95.4734C137.283 95.4242 137.354 95.3983 137.427 95.4013C160.991 96.6453 186.687 94.7437 191.597 94.3492C191.67 94.3434 191.742 94.3667 191.797 94.4139C191.853 94.4612 191.887 94.5286 191.893 94.6013C191.899 94.6739 191.876 94.7459 191.828 94.8014C191.781 94.8569 191.714 94.8914 191.641 94.8972C187.904 95.1986 172.16 96.3658 154.459 96.3658Z" fill="white"/>
<path d="M191.4 100.421H157.199C150.374 100.356 143.561 99.8265 136.808 98.8373C136.636 98.8093 136.471 98.7462 136.324 98.6519C136.177 98.5577 136.051 98.4342 135.953 98.2893C135.853 98.1408 135.783 97.9734 135.749 97.7972C135.715 97.621 135.718 97.4398 135.756 97.2645L136.474 97.418C136.456 97.4945 136.454 97.5739 136.468 97.6512C136.483 97.7284 136.512 97.802 136.556 97.8673C136.599 97.926 136.653 97.9756 136.715 98.0132C136.777 98.0508 136.846 98.0758 136.918 98.0865C143.633 99.0698 150.407 99.5953 157.194 99.6593H191.394C191.559 99.657 191.716 99.5933 191.836 99.4807C191.956 99.3682 192.029 99.2148 192.041 99.051L192.775 99.0894C192.757 99.4443 192.605 99.7791 192.35 100.026C192.095 100.273 191.755 100.415 191.4 100.421Z" fill="#202020"/>
<path d="M173.344 73.5674L173.03 74.2312L183.78 79.3151L184.094 78.6512L173.344 73.5674Z" fill="#202020"/>
<path d="M159.172 106.372L165.2 111.529L171.776 106.372H159.172Z" fill="#797979"/>
<path d="M169.59 182.585C174.254 178.044 174.548 170.78 170.246 166.36C165.943 161.941 158.674 162.039 154.009 166.58C149.344 171.121 149.051 178.385 153.353 182.805C157.655 187.224 164.925 187.126 169.59 182.585Z" fill="#797979"/>
<path d="M153.873 174.023C153.873 174.023 158.553 176.73 160.449 180.221C162.049 177.481 164.444 173.711 170.187 169.453C163.216 172.258 160.635 176.73 160.635 176.73C158.698 175.179 156.345 174.237 153.873 174.023Z" fill="white"/>
</svg>
